# xmcd
#
# Track frame offsets: 
#        182
#        17602
#        30710
#        39712
#        56270
#        68512
#        82577
#        92787
#        103512
#        117847
#        135142
#        146930
#        163745
#        175677
#        190757
#
# Disc length: 2692 seconds
#
# Revision: 0
# Processed by: cddbd v1.5.2PL0 Copyright (c) Steve Scherf et al.
# Submitted via: ExactAudioCopy v0.99pb4
#
DISCID=b40a820f
DTITLE=The Liberators - Let's Ball Tonight
DYEAR=1989
DGENRE=Blues
TTITLE0=I'm The Man (Downthere)
TTITLE1=15 Miles
TTITLE2=More Frenzies
TTITLE3=Bo Did It
TTITLE4=I Take What I Want
TTITLE5=Diddy Wah Diddy
TTITLE6=C'mon Everybody
TTITLE7=Keep On Knocking
TTITLE8=Let's Ball Tonight
TTITLE9=Teenage Letter
TTITLE10=Let Me Tell You A Thing Or Two
TTITLE11=It's My Life
TTITLE12=Betty Blue's
TTITLE13=Just Don't Care
TTITLE14=She's On The Ball
EXTD=
EXTT0=
EXTT1=
EXTT2=
EXTT3=
EXTT4=
EXTT5=
EXTT6=
EXTT7=
EXTT8=
EXTT9=
EXTT10=
EXTT11=
EXTT12=
EXTT13=
EXTT14=
PLAYORDER=
